# xmcd CD database file
#
# Track frame offsets:
#	150
#	21076
#	38901
#	53593
#	78538
#	87347
#	100604
#	117179
#	136261
#	151178
#	169089
#	189169
#	198466
#	212688
#	225760
#
# Disc length: 3117 seconds
#
# Revision: 0
# Processed by: cddbd v1.5.2PL0 Copyright (c) Steve Scherf et al.
# Submitted via: CDex 1.51
#
DISCID=ae0c2b0f
DTITLE=Lady D - out of nowhere
DYEAR=2009
DGENRE=Jazz
TTITLE0=The Way You Look Tonight
TTITLE1=Don't Worry Bout Me
TTITLE2=Almost Like Being In Love
TTITLE3=Moonglow
TTITLE4=Embraceable You
TTITLE5=Hey Big Spender
TTITLE6=Out of Nowhere
TTITLE7=Cheek To Cheek
TTITLE8=Gee Baby Ain't I Good To You
TTITLE9=Bye Bye Blackbird
TTITLE10=Crazy
TTITLE11=I Hadn't Anyone T'il You
TTITLE12=Let's Fall In Love
TTITLE13=I Wish You Love
TTITLE14=A Song For Maddi Boo
EXTD=YEAR: 2009
EXTT0=
EXTT1=
EXTT2=
EXTT3=
EXTT4=
EXTT5=
EXTT6=
EXTT7=
EXTT8=
EXTT9=
EXTT10=
EXTT11=
EXTT12=
EXTT13=
EXTT14=
PLAYORDER=
